<?xml version="1.0" encoding="UTF-8"?>
<svg id="Layer_2" data-name="Layer 2" xmlns="http://www.w3.org/2000/svg" xmlns:xlink="http://www.w3.org/1999/xlink" viewBox="0 0 369.31 369.31">
  <defs>
    <style>
      .cls-1 {
        mask: url(#mask-15);
      }

      .cls-2 {
        mask: url(#mask-17);
      }

      .cls-3 {
        mask: url(#mask-18);
      }

      .cls-4 {
        mask: url(#mask-14);
      }

      .cls-5 {
        mask: url(#mask-13);
      }

      .cls-6 {
        mask: url(#mask-19);
      }

      .cls-7 {
        mask: url(#mask-12);
      }

      .cls-8 {
        mask: url(#mask-20);
      }

      .cls-9 {
        mask: url(#mask-21);
      }

      .cls-10 {
        mask: url(#mask-11);
      }

      .cls-11 {
        mask: url(#mask-16);
      }

      .cls-12 {
        mask: url(#mask-10);
      }

      .cls-13 {
        fill: url(#linear-gradient);
      }

      .cls-14 {
        filter: url(#luminosity-noclip-9);
      }

      .cls-15 {
        filter: url(#luminosity-noclip-7);
      }

      .cls-16 {
        filter: url(#luminosity-noclip-3);
      }

      .cls-17 {
        filter: url(#luminosity-noclip-5);
      }

      .cls-18 {
        mask: url(#mask);
      }

      .cls-19 {
        filter: url(#luminosity-noclip);
      }

      .cls-20 {
        fill: #fff;
      }

      .cls-21 {
        fill: #fbfcfc;
      }

      .cls-22 {
        fill: #343f47;
      }

      .cls-23 {
        fill: #344048;
      }

      .cls-24 {
        fill: #576065;
      }

      .cls-25 {
        fill: rgba(165, 171, 175, .6);
      }

      .cls-26 {
        filter: url(#luminosity-noclip-17);
      }

      .cls-27 {
        filter: url(#luminosity-noclip-15);
      }

      .cls-28 {
        filter: url(#luminosity-noclip-19);
      }

      .cls-29 {
        filter: url(#luminosity-noclip-13);
      }

      .cls-30 {
        filter: url(#luminosity-noclip-11);
      }

      .cls-31 {
        filter: url(#luminosity-noclip-21);
      }

      .cls-32 {
        fill: url(#linear-gradient-7);
      }

      .cls-32, .cls-33, .cls-34, .cls-35, .cls-36, .cls-37, .cls-38, .cls-39, .cls-40, .cls-41, .cls-42 {
        mix-blend-mode: multiply;
      }

      .cls-33 {
        fill: url(#linear-gradient-5);
      }

      .cls-34 {
        fill: url(#linear-gradient-9);
      }

      .cls-35 {
        fill: url(#linear-gradient-3);
      }

      .cls-43 {
        fill: url(#linear-gradient-8);
      }

      .cls-44 {
        fill: url(#linear-gradient-4);
      }

      .cls-45 {
        fill: url(#linear-gradient-2);
      }

      .cls-46 {
        fill: url(#linear-gradient-6);
      }

      .cls-47 {
        fill: url(#linear-gradient-14);
      }

      .cls-48 {
        fill: url(#linear-gradient-18);
      }

      .cls-49 {
        fill: url(#linear-gradient-22);
      }

      .cls-50 {
        fill: url(#linear-gradient-20);
      }

      .cls-51 {
        fill: url(#linear-gradient-23);
      }

      .cls-52 {
        fill: url(#linear-gradient-16);
      }

      .cls-53 {
        fill: url(#linear-gradient-12);
      }

      .cls-54 {
        fill: url(#linear-gradient-10);
      }

      .cls-55 {
        fill: url(#linear-gradient-25);
      }

      .cls-36 {
        fill: url(#linear-gradient-17);
      }

      .cls-37 {
        fill: url(#linear-gradient-19);
      }

      .cls-38 {
        fill: url(#linear-gradient-15);
      }

      .cls-39 {
        fill: url(#linear-gradient-21);
      }

      .cls-40 {
        fill: url(#linear-gradient-13);
      }

      .cls-41 {
        fill: url(#linear-gradient-11);
      }

      .cls-42 {
        fill: url(#linear-gradient-24);
      }

      .cls-56 {
        mask: url(#mask-3);
      }

      .cls-57 {
        mask: url(#mask-2);
      }

      .cls-58 {
        mask: url(#mask-5);
      }

      .cls-59 {
        mask: url(#mask-4);
      }

      .cls-60 {
        mask: url(#mask-1);
      }

      .cls-61 {
        mask: url(#mask-7);
      }

      .cls-62 {
        mask: url(#mask-6);
      }

      .cls-63 {
        mask: url(#mask-8);
      }

      .cls-64 {
        mask: url(#mask-9);
      }
    </style>
    <linearGradient id="linear-gradient" x1="-955.35" y1="-145.88" x2="-951.99" y2="-145.88" gradientTransform="translate(69611.96 79054.14) rotate(39.95) scale(108.91)" gradientUnits="userSpaceOnUse">
      <stop offset="0" stop-color="#fff"/>
      <stop offset=".1" stop-color="#e7e8e6"/>
      <stop offset=".1" stop-color="#ced1d1"/>
      <stop offset=".2" stop-color="#b6bbbd"/>
      <stop offset=".2" stop-color="#a6acaf"/>
      <stop offset=".3" stop-color="#9aa2a6"/>
      <stop offset=".3" stop-color="#98a0a4"/>
      <stop offset=".4" stop-color="#828a8f"/>
      <stop offset=".5" stop-color="#677176"/>
      <stop offset=".6" stop-color="#545d64"/>
      <stop offset=".7" stop-color="#485259"/>
      <stop offset=".8" stop-color="#444e55"/>
      <stop offset="1" stop-color="#485258"/>
    </linearGradient>
    <linearGradient id="linear-gradient-2" x1="-955.97" y1="-146.73" x2="-952.65" y2="-146.73" gradientTransform="translate(65249.91 74434.99) rotate(40.03) scale(102.24)" gradientUnits="userSpaceOnUse">
      <stop offset="0" stop-color="#0f202a"/>
      <stop offset=".2" stop-color="#344048"/>
      <stop offset=".5" stop-color="#787f85"/>
      <stop offset=".5" stop-color="#81898e"/>
      <stop offset=".7" stop-color="#b3b8b8"/>
      <stop offset=".8" stop-color="#d3d6d4"/>
      <stop offset=".8" stop-color="#dee0dd"/>
      <stop offset="1" stop-color="#fbfcfc"/>
    </linearGradient>
    <filter id="luminosity-noclip" x="0" y="0" width="369.31" height="369.31" color-interpolation-filters="sRGB" filterUnits="userSpaceOnUse">
      <feFlood flood-color="#fff" result="bg"/>
      <feBlend in="SourceGraphic" in2="bg"/>
    </filter>
    <filter id="luminosity-noclip-2" x="0" y="-8376.53" width="369.31" height="32766" color-interpolation-filters="sRGB" filterUnits="userSpaceOnUse">
      <feFlood flood-color="#fff" result="bg"/>
      <feBlend in="SourceGraphic" in2="bg"/>
    </filter>
    <mask id="mask-1" x="0" y="-8376.53" width="369.31" height="32766" maskUnits="userSpaceOnUse"/>
    <linearGradient id="linear-gradient-3" x1="-927.58" y1="-126.41" x2="-924.26" y2="-126.41" gradientTransform="translate(-21850.27 -101580.53) rotate(-109.99) scale(111.44)" gradientUnits="userSpaceOnUse">
      <stop offset="0" stop-color="#666"/>
      <stop offset=".1" stop-color="#666"/>
      <stop offset=".3" stop-color="#666"/>
      <stop offset=".5" stop-color="#666"/>
      <stop offset=".7" stop-color="#000"/>
      <stop offset=".8" stop-color="#000"/>
      <stop offset="1" stop-color="#000"/>
    </linearGradient>
    <mask id="mask" x="0" y="0" width="369.31" height="369.31" maskUnits="userSpaceOnUse">
      <g class="cls-19">
        <g class="cls-60">
          <path class="cls-35" d="m184.65,365.33c99.78.03,180.7-80.84,180.72-180.63.03-99.78-80.84-180.7-180.63-180.72C84.96,3.95,4.05,84.82,4.02,184.61v.05c-.05,99.73,80.75,180.62,180.49,180.68h.14ZM184.65,0c101.98,0,184.65,82.67,184.65,184.65s-82.67,184.65-184.65,184.65S0,286.63,0,184.65C.31,82.8,82.8.31,184.65,0Z"/>
        </g>
      </g>
    </mask>
    <linearGradient id="linear-gradient-4" x1="-927.58" y1="-126.41" x2="-924.26" y2="-126.41" gradientTransform="translate(-21850.27 -101580.53) rotate(-109.99) scale(111.44)" gradientUnits="userSpaceOnUse">
      <stop offset="0" stop-color="#e1e3e0"/>
      <stop offset=".1" stop-color="#c1c5c4"/>
      <stop offset=".3" stop-color="#9ba0a2"/>
      <stop offset=".5" stop-color="#7e8588"/>
      <stop offset=".7" stop-color="#697175"/>
      <stop offset=".8" stop-color="#5c656a"/>
      <stop offset="1" stop-color="#576166"/>
    </linearGradient>
    <filter id="luminosity-noclip-3" x="24.57" y="24.57" width="319.4" height="319.4" color-interpolation-filters="sRGB" filterUnits="userSpaceOnUse">
      <feFlood flood-color="#fff" result="bg"/>
      <feBlend in="SourceGraphic" in2="bg"/>
    </filter>
    <filter id="luminosity-noclip-4" x="24.57" y="-8376.53" width="319.4" height="32766" color-interpolation-filters="sRGB" filterUnits="userSpaceOnUse">
      <feFlood flood-color="#fff" result="bg"/>
      <feBlend in="SourceGraphic" in2="bg"/>
    </filter>
    <mask id="mask-3" x="24.57" y="-8376.53" width="319.4" height="32766" maskUnits="userSpaceOnUse"/>
    <linearGradient id="linear-gradient-5" x1="-961.29" y1="-142.33" x2="-957.97" y2="-142.33" gradientTransform="translate(34425.04 86817.43) rotate(60) scale(96.02)" xlink:href="#linear-gradient-3"/>
    <mask id="mask-2" x="24.57" y="24.57" width="319.4" height="319.4" maskUnits="userSpaceOnUse">
      <g class="cls-16">
        <g class="cls-56">
          <path class="cls-33" d="m184.65,343.98c-88.2.21-159.87-71.11-160.09-159.31-.21-88.2,71.11-159.87,159.31-160.09s159.87,71.11,160.09,159.31c.1,42.49-16.73,83.26-46.77,113.31-29.75,30.01-70.28,46.86-112.54,46.78Zm0-4.73c85.11,0,154.12-68.99,154.13-154.1,0-85.12-68.99-154.12-154.1-154.13-40.85,0-80.02,16.21-108.92,45.07-29.32,28.45-45.79,67.62-45.6,108.47,0,85.43,69.25,154.68,154.68,154.68h-.19Z"/>
        </g>
      </g>
    </mask>
    <linearGradient id="linear-gradient-6" x1="-961.29" y1="-142.33" x2="-957.97" y2="-142.33" gradientTransform="translate(34425.04 86817.43) rotate(60) scale(96.02)" xlink:href="#linear-gradient-4"/>
    <filter id="luminosity-noclip-5" x="185.84" y="188.56" width="141" height="81.04" color-interpolation-filters="sRGB" filterUnits="userSpaceOnUse">
      <feFlood flood-color="#fff" result="bg"/>
      <feBlend in="SourceGraphic" in2="bg"/>
    </filter>
    <filter id="luminosity-noclip-6" x="185.84" y="-8376.53" width="141" height="32766" color-interpolation-filters="sRGB" filterUnits="userSpaceOnUse">
      <feFlood flood-color="#fff" result="bg"/>
      <feBlend in="SourceGraphic" in2="bg"/>
    </filter>
    <mask id="mask-5" x="185.84" y="-8376.53" width="141" height="32766" maskUnits="userSpaceOnUse"/>
    <linearGradient id="linear-gradient-7" x1="-1231.63" y1="35.2" x2="-1228.32" y2="35.2" gradientTransform="translate(-3221.64 6336.7) rotate(121.29) scale(5.7)" gradientUnits="userSpaceOnUse">
      <stop offset="0" stop-color="#fff"/>
      <stop offset="1" stop-color="#000"/>
    </linearGradient>
    <mask id="mask-4" x="185.84" y="188.56" width="141" height="81.04" maskUnits="userSpaceOnUse">
      <g class="cls-17">
        <g class="cls-58">
          <path class="cls-32" d="m185.84,189.29c4.61,8.02,10.02,15.56,16.15,22.49,8.4,8.77,17.95,16.36,28.41,22.54l84.89,34.04c3.73,1.99,8.28,1.54,11.55-1.14l-139.39-78.5c-.51-.32-1.18-.17-1.5.34-.04.07-.08.15-.11.23Z"/>
        </g>
      </g>
    </mask>
    <linearGradient id="linear-gradient-8" x1="-1231.63" y1="35.2" x2="-1228.32" y2="35.2" gradientTransform="translate(-3221.64 6336.7) rotate(121.29) scale(5.7)" gradientUnits="userSpaceOnUse">
      <stop offset="0" stop-color="#27353d"/>
      <stop offset="1" stop-color="#0b1620"/>
    </linearGradient>
    <filter id="luminosity-noclip-7" x="186.97" y="25.38" width="24.24" height="156.39" color-interpolation-filters="sRGB" filterUnits="userSpaceOnUse">
      <feFlood flood-color="#fff" result="bg"/>
      <feBlend in="SourceGraphic" in2="bg"/>
    </filter>
    <filter id="luminosity-noclip-8" x="186.97" y="-8376.53" width="24.24" height="32766" color-interpolation-filters="sRGB" filterUnits="userSpaceOnUse">
      <feFlood flood-color="#fff" result="bg"/>
      <feBlend in="SourceGraphic" in2="bg"/>
    </filter>
    <mask id="mask-7" x="186.97" y="-8376.53" width="24.24" height="32766" maskUnits="userSpaceOnUse"/>
    <linearGradient id="linear-gradient-9" x1="-763.99" y1="-18.32" x2="-760.68" y2="-18.32" gradientTransform="translate(-3352.22 -5908.76) rotate(-121.88) scale(9.22)" gradientUnits="userSpaceOnUse">
      <stop offset="0" stop-color="#fff"/>
      <stop offset=".1" stop-color="#fff"/>
      <stop offset=".9" stop-color="#000"/>
      <stop offset="1" stop-color="#000"/>
    </linearGradient>
    <mask id="mask-6" x="186.97" y="25.38" width="24.24" height="156.39" maskUnits="userSpaceOnUse">
      <g class="cls-15">
        <g class="cls-61">
          <path class="cls-34" d="m186.97,181.2l.57-.57-.57.57c0,.31.25.57.57.57h.57c.62-.57,17.33-9.23,23.11-12.69l-2.32-16.71-17.9-121.78c.15-1.89-.46-3.77-1.7-5.21,0,0,8.66,116.57,8.66,129.26-.03,9.95-3.98,19.49-10.98,26.56Z"/>
        </g>
      </g>
    </mask>
    <linearGradient id="linear-gradient-10" x1="-763.99" y1="-18.32" x2="-760.68" y2="-18.32" gradientTransform="translate(-3352.22 -5908.76) rotate(-121.88) scale(9.22)" gradientUnits="userSpaceOnUse">
      <stop offset="0" stop-color="#0b1721"/>
      <stop offset=".1" stop-color="#0b1721"/>
      <stop offset=".9" stop-color="#0b1721"/>
      <stop offset="1" stop-color="#0b1721"/>
    </linearGradient>
    <filter id="luminosity-noclip-9" x="42.09" y="188.47" width="141.99" height="81.68" color-interpolation-filters="sRGB" filterUnits="userSpaceOnUse">
      <feFlood flood-color="#fff" result="bg"/>
      <feBlend in="SourceGraphic" in2="bg"/>
    </filter>
    <filter id="luminosity-noclip-10" x="42.09" y="-8376.53" width="141.99" height="32766" color-interpolation-filters="sRGB" filterUnits="userSpaceOnUse">
      <feFlood flood-color="#fff" result="bg"/>
      <feBlend in="SourceGraphic" in2="bg"/>
    </filter>
    <mask id="mask-9" x="42.09" y="-8376.53" width="141.99" height="32766" maskUnits="userSpaceOnUse"/>
    <linearGradient id="linear-gradient-11" x1="-1012.04" y1="111.22" x2="-1008.68" y2="111.22" gradientTransform="translate(-6973.27 3135.74) rotate(164.04) scale(7.6)" gradientUnits="userSpaceOnUse">
      <stop offset="0" stop-color="#ccc"/>
      <stop offset=".2" stop-color="#ccc"/>
      <stop offset=".9" stop-color="#000"/>
      <stop offset="1" stop-color="#000"/>
    </linearGradient>
    <mask id="mask-8" x="42.09" y="188.47" width="141.99" height="81.68" maskUnits="userSpaceOnUse">
      <g class="cls-14">
        <g class="cls-64">
          <path class="cls-41" d="m182.95,189.29c0-.57-.62-1.18-1.18-.57l-139.67,79.26c3.37,2.41,7.77,2.84,11.55,1.14l130.44-52.51-1.14-27.32Z"/>
        </g>
      </g>
    </mask>
    <linearGradient id="linear-gradient-12" x1="-1012.04" y1="111.22" x2="-1008.68" y2="111.22" gradientTransform="translate(-6973.27 3135.74) rotate(164.04) scale(7.6)" gradientUnits="userSpaceOnUse">
      <stop offset="0" stop-color="#0b1721"/>
      <stop offset=".2" stop-color="#0b1721"/>
      <stop offset=".9" stop-color="#0b1721"/>
      <stop offset="1" stop-color="#0b1721"/>
    </linearGradient>
    <filter id="luminosity-noclip-11" x="47.3" y="190.48" width="136.79" height="79.07" color-interpolation-filters="sRGB" filterUnits="userSpaceOnUse">
      <feFlood flood-color="#fff" result="bg"/>
      <feBlend in="SourceGraphic" in2="bg"/>
    </filter>
    <filter id="luminosity-noclip-12" x="47.3" y="-8376.53" width="136.79" height="32766" color-interpolation-filters="sRGB" filterUnits="userSpaceOnUse">
      <feFlood flood-color="#fff" result="bg"/>
      <feBlend in="SourceGraphic" in2="bg"/>
    </filter>
    <mask id="mask-11" x="47.3" y="-8376.53" width="136.79" height="32766" maskUnits="userSpaceOnUse"/>
    <linearGradient id="linear-gradient-13" x1="-304.67" y1="100.5" x2="-301.35" y2="100.5" gradientTransform="translate(-464.38 -461.78) rotate(-111.73) scale(2.81)" gradientUnits="userSpaceOnUse">
      <stop offset="0" stop-color="#ccc"/>
      <stop offset=".1" stop-color="#ccc"/>
      <stop offset="1" stop-color="#000"/>
    </linearGradient>
    <mask id="mask-10" x="47.3" y="190.48" width="136.79" height="79.07" maskUnits="userSpaceOnUse">
      <g class="cls-30">
        <g class="cls-10">
          <path class="cls-40" d="m53.64,268.36l130.44-52.46-1.14-25.43c-2.7,8.87-8.98,16.2-17.33,20.22-8.1,4.73-85.22,42.61-113.11,55.96-1.67.92-3.41,1.69-5.21,2.32,2.07.94,4.49.7,6.34-.62Z"/>
        </g>
      </g>
    </mask>
    <linearGradient id="linear-gradient-14" x1="-304.67" y1="100.5" x2="-301.35" y2="100.5" gradientTransform="translate(-464.38 -461.78) rotate(-111.73) scale(2.81)" gradientUnits="userSpaceOnUse">
      <stop offset="0" stop-color="#0b1721"/>
      <stop offset=".1" stop-color="#0b1721"/>
      <stop offset="1" stop-color="#0b1721"/>
    </linearGradient>
    <filter id="luminosity-noclip-13" x="183.99" y="21.12" width="27.13" height="160.83" color-interpolation-filters="sRGB" filterUnits="userSpaceOnUse">
      <feFlood flood-color="#fff" result="bg"/>
      <feBlend in="SourceGraphic" in2="bg"/>
    </filter>
    <filter id="luminosity-noclip-14" x="183.99" y="-8376.53" width="27.13" height="32766" color-interpolation-filters="sRGB" filterUnits="userSpaceOnUse">
      <feFlood flood-color="#fff" result="bg"/>
      <feBlend in="SourceGraphic" in2="bg"/>
    </filter>
    <mask id="mask-13" x="183.99" y="-8376.53" width="27.13" height="32766" maskUnits="userSpaceOnUse"/>
    <linearGradient id="linear-gradient-15" x1="-985.01" y1="200.1" x2="-981.7" y2="200.1" gradientTransform="translate(-5463.35 1969.79) rotate(173.25) scale(5.95)" gradientUnits="userSpaceOnUse">
      <stop offset="0" stop-color="#fff"/>
      <stop offset=".3" stop-color="#fff"/>
      <stop offset=".8" stop-color="#000"/>
      <stop offset="1" stop-color="#000"/>
    </linearGradient>
    <mask id="mask-12" x="183.99" y="21.12" width="27.13" height="160.83" maskUnits="userSpaceOnUse">
      <g class="cls-29">
        <g class="cls-5">
          <path class="cls-38" d="m187.45,180.63l-.57.57s0,1.18,1.14.57c1.14-.62,17.33-9.23,23.11-12.69l-20.22-138.49c-.02-4.32-2.8-8.14-6.91-9.47l2.32,160.41,1.14-.9Z"/>
        </g>
      </g>
    </mask>
    <linearGradient id="linear-gradient-16" x1="-985.01" y1="200.1" x2="-981.7" y2="200.1" gradientTransform="translate(-5463.35 1969.79) rotate(173.25) scale(5.95)" gradientUnits="userSpaceOnUse">
      <stop offset="0" stop-color="#0b1721"/>
      <stop offset=".3" stop-color="#0b1721"/>
      <stop offset=".8" stop-color="#0b1721"/>
      <stop offset="1" stop-color="#0b1721"/>
    </linearGradient>
    <filter id="luminosity-noclip-15" x="183.99" y="21.12" width="27.13" height="160.83" color-interpolation-filters="sRGB" filterUnits="userSpaceOnUse">
      <feFlood flood-color="#fff" result="bg"/>
      <feBlend in="SourceGraphic" in2="bg"/>
    </filter>
    <filter id="luminosity-noclip-16" x="183.99" y="-8376.53" width="27.13" height="32766" color-interpolation-filters="sRGB" filterUnits="userSpaceOnUse">
      <feFlood flood-color="#fff" result="bg"/>
      <feBlend in="SourceGraphic" in2="bg"/>
    </filter>
    <mask id="mask-15" x="183.99" y="-8376.53" width="27.13" height="32766" maskUnits="userSpaceOnUse"/>
    <linearGradient id="linear-gradient-17" x1="-1007.55" y1="358.28" x2="-1004.23" y2="358.28" gradientTransform="translate(-3643.44 2056.65) rotate(172.59) scale(4.03)" gradientUnits="userSpaceOnUse">
      <stop offset="0" stop-color="#fff"/>
      <stop offset=".4" stop-color="#fff"/>
      <stop offset="1" stop-color="#000"/>
    </linearGradient>
    <mask id="mask-14" x="183.99" y="21.12" width="27.13" height="160.83" maskUnits="userSpaceOnUse">
      <g class="cls-27">
        <g class="cls-1">
          <path class="cls-36" d="m187.45,180.63l-.57.57s0,1.18,1.14.57c1.14-.62,17.33-9.23,23.11-12.69l-20.22-138.49c-.02-4.32-2.8-8.14-6.91-9.47l2.32,160.41,1.14-.9Z"/>
        </g>
      </g>
    </mask>
    <linearGradient id="linear-gradient-18" x1="-1007.55" y1="358.28" x2="-1004.23" y2="358.28" gradientTransform="translate(-3643.44 2056.65) rotate(172.59) scale(4.03)" gradientUnits="userSpaceOnUse">
      <stop offset="0" stop-color="#27353d"/>
      <stop offset=".4" stop-color="#27353d"/>
      <stop offset="1" stop-color="#3c484f"/>
    </linearGradient>
    <filter id="luminosity-noclip-17" x="4.02" y="115.43" width="128.74" height="232.57" color-interpolation-filters="sRGB" filterUnits="userSpaceOnUse">
      <feFlood flood-color="#fff" result="bg"/>
      <feBlend in="SourceGraphic" in2="bg"/>
    </filter>
    <filter id="luminosity-noclip-18" x="4.02" y="-8376.53" width="128.74" height="32766" color-interpolation-filters="sRGB" filterUnits="userSpaceOnUse">
      <feFlood flood-color="#fff" result="bg"/>
      <feBlend in="SourceGraphic" in2="bg"/>
    </filter>
    <mask id="mask-17" x="4.02" y="-8376.53" width="128.74" height="32766" maskUnits="userSpaceOnUse"/>
    <linearGradient id="linear-gradient-19" x1="-961.77" y1="-160.98" x2="-958.45" y2="-160.98" gradientTransform="translate(42181.16 34950.88) rotate(29.99) scale(56.03)" gradientUnits="userSpaceOnUse">
      <stop offset="0" stop-color="#000"/>
      <stop offset="0" stop-color="#000"/>
      <stop offset=".1" stop-color="#fff"/>
      <stop offset="1" stop-color="#fff"/>
    </linearGradient>
    <mask id="mask-16" x="4.02" y="115.43" width="128.74" height="232.57" maskUnits="userSpaceOnUse">
      <g class="cls-26">
        <g class="cls-2">
          <path class="cls-37" d="m29.4,256.24c-4.02-9.47-27.13-54.26-1.75-140.81h-9.8c-4.96,14.11-8.82,28.57-11.55,43.28,0,0-1.14,5.78-1.7,12.12-.43,4.6-.62,9.21-.57,13.83,0,34.66,8.66,54.83,8.66,54.83,8.89,28.59,25.23,54.3,47.35,74.48,21.08,17.14,46.06,28.83,72.73,34.04-4.07-.57-73.15-30.02-103.36-91.76Z"/>
        </g>
      </g>
    </mask>
    <linearGradient id="linear-gradient-20" x1="-961.77" y1="-160.98" x2="-958.45" y2="-160.98" gradientTransform="translate(42181.16 34950.88) rotate(29.99) scale(56.03)" gradientUnits="userSpaceOnUse">
      <stop offset="0" stop-color="#25313b"/>
      <stop offset="0" stop-color="#26333c"/>
      <stop offset=".1" stop-color="#27353d"/>
      <stop offset="1" stop-color="#27353d"/>
    </linearGradient>
    <filter id="luminosity-noclip-19" x="181.77" y="187.85" width="5.21" height="27.38" color-interpolation-filters="sRGB" filterUnits="userSpaceOnUse">
      <feFlood flood-color="#fff" result="bg"/>
      <feBlend in="SourceGraphic" in2="bg"/>
    </filter>
    <filter id="luminosity-noclip-20" x="181.77" y="-8376.53" width="5.21" height="32766" color-interpolation-filters="sRGB" filterUnits="userSpaceOnUse">
      <feFlood flood-color="#fff" result="bg"/>
      <feBlend in="SourceGraphic" in2="bg"/>
    </filter>
    <mask id="mask-19" x="181.77" y="-8376.53" width="5.21" height="32766" maskUnits="userSpaceOnUse"/>
    <linearGradient id="linear-gradient-21" x1="-713.26" y1="-133.12" x2="-709.95" y2="-133.12" gradientTransform="translate(1295.94 -5739.91) rotate(-90) scale(8.35)" gradientUnits="userSpaceOnUse">
      <stop offset="0" stop-color="#fff"/>
      <stop offset=".3" stop-color="#fff"/>
      <stop offset="1" stop-color="#000"/>
    </linearGradient>
    <mask id="mask-18" x="181.77" y="187.85" width="5.21" height="27.38" maskUnits="userSpaceOnUse">
      <g class="cls-28">
        <g class="cls-6">
          <path class="cls-39" d="m186.97,188.11h-5.21c.57,0,1.18,0,1.18.62l1.14,26.51h.57l1.18-26.51c0-.62.57-1.23,1.14-.62Z"/>
        </g>
      </g>
    </mask>
    <linearGradient id="linear-gradient-22" x1="-713.26" y1="-133.12" x2="-709.95" y2="-133.12" gradientTransform="translate(1295.94 -5739.91) rotate(-90) scale(8.35)" gradientUnits="userSpaceOnUse">
      <stop offset="0" stop-color="#a6acb0"/>
      <stop offset=".3" stop-color="#a6acb0"/>
      <stop offset="1" stop-color="#a6acb0"/>
    </linearGradient>
    <linearGradient id="linear-gradient-23" x1="-962.04" y1="-132.85" x2="-958.72" y2="-132.85" gradientTransform="translate(-13821.36 102098.79) rotate(90) scale(106.11)" gradientUnits="userSpaceOnUse">
      <stop offset="0" stop-color="#dee0dd"/>
      <stop offset="0" stop-color="#c5c9c7"/>
      <stop offset="0" stop-color="#9ea3a4"/>
      <stop offset="0" stop-color="#83898c"/>
      <stop offset="0" stop-color="#727a7e"/>
      <stop offset="0" stop-color="#6c7479"/>
      <stop offset=".2" stop-color="#344048"/>
      <stop offset=".5" stop-color="#27353d"/>
      <stop offset=".8" stop-color="#344048"/>
      <stop offset="1" stop-color="#444e55"/>
    </linearGradient>
    <filter id="luminosity-noclip-21" x="201.98" y="17.76" width="152.35" height="236.07" color-interpolation-filters="sRGB" filterUnits="userSpaceOnUse">
      <feFlood flood-color="#fff" result="bg"/>
      <feBlend in="SourceGraphic" in2="bg"/>
    </filter>
    <filter id="luminosity-noclip-22" x="201.98" y="-8376.53" width="152.35" height="32766" color-interpolation-filters="sRGB" filterUnits="userSpaceOnUse">
      <feFlood flood-color="#fff" result="bg"/>
      <feBlend in="SourceGraphic" in2="bg"/>
    </filter>
    <mask id="mask-21" x="201.98" y="-8376.53" width="152.35" height="32766" maskUnits="userSpaceOnUse"/>
    <linearGradient id="linear-gradient-24" x1="-984.31" y1="-106.8" x2="-980.99" y2="-106.8" gradientTransform="translate(-26458.34 31437.31) rotate(124.28) scale(41.68)" gradientUnits="userSpaceOnUse">
      <stop offset="0" stop-color="#fff"/>
      <stop offset=".7" stop-color="#fff"/>
      <stop offset=".7" stop-color="#fff"/>
      <stop offset=".7" stop-color="#fff"/>
      <stop offset=".7" stop-color="#fff"/>
      <stop offset=".8" stop-color="#000"/>
      <stop offset=".8" stop-color="#000"/>
      <stop offset=".8" stop-color="#000"/>
      <stop offset=".8" stop-color="#000"/>
      <stop offset=".8" stop-color="#000"/>
      <stop offset="1" stop-color="#000"/>
    </linearGradient>
    <mask id="mask-20" x="201.98" y="17.76" width="152.35" height="236.07" maskUnits="userSpaceOnUse">
      <g class="cls-31">
        <g class="cls-9">
          <path class="cls-42" d="m339.34,116.47C298.95,23.53,207.76,18.37,202.55,17.76h-.57c69.84,12.74,114.3,58.33,129.87,106.2v.62c6.95,19.05,10.64,39.14,10.94,59.42.2,21.81-4.12,43.43-12.69,63.49-.57,2.89-1.14,6.34-1.7,6.34h9.47c27.46-51.84,15.29-104.21,1.47-137.35Z"/>
        </g>
      </g>
    </mask>
    <linearGradient id="linear-gradient-25" x1="-984.31" y1="-106.8" x2="-980.99" y2="-106.8" gradientTransform="translate(-26458.34 31437.31) rotate(124.28) scale(41.68)" gradientUnits="userSpaceOnUse">
      <stop offset="0" stop-color="#27353d"/>
      <stop offset=".7" stop-color="#27353d"/>
      <stop offset=".7" stop-color="#2c3840"/>
      <stop offset=".7" stop-color="#37434b"/>
      <stop offset=".7" stop-color="#4a555c"/>
      <stop offset=".8" stop-color="#646e74"/>
      <stop offset=".8" stop-color="#868d92"/>
      <stop offset=".8" stop-color="#b1b5b8"/>
      <stop offset=".8" stop-color="#e1e3e4"/>
      <stop offset=".8" stop-color="#fff"/>
      <stop offset="1" stop-color="#fff"/>
    </linearGradient>
  </defs>
  <g id="Layer_1-2" data-name="Layer 1">
    <path id="outer" class="cls-13" d="m365.33,184.65c.03,99.78-80.84,180.7-180.63,180.72-99.78.03-180.7-80.84-180.72-180.63C3.95,84.96,84.82,4.05,184.61,4.02h.05c99.73-.05,180.62,80.75,180.68,180.49,0,.05,0,.09,0,.14ZM184.65,14.96C90.94,14.96,14.96,90.94,14.96,184.65s75.97,169.69,169.69,169.69,169.69-75.97,169.69-169.69h0c.26-93.46-75.29-169.43-168.74-169.69-.32,0-.63,0-.95,0Z"/>
    <path class="cls-45" d="m184.65,14.96C90.94,14.96,14.96,90.94,14.96,184.65s75.97,169.69,169.69,169.69,169.69-75.97,169.69-169.69h0c.26-93.46-75.29-169.43-168.74-169.69-.32,0-.63,0-.95,0Zm0,328.45c-87.68.03-158.78-71.03-158.8-158.71S96.88,25.92,184.56,25.9c87.68-.03,158.78,71.03,158.8,158.71v.05c.05,87.63-70.94,158.7-158.56,158.75h-.14Z"/>
    <g class="cls-18">
      <path class="cls-44" d="m184.65,365.33c99.78.03,180.7-80.84,180.72-180.63.03-99.78-80.84-180.7-180.63-180.72C84.96,3.95,4.05,84.82,4.02,184.61v.05c-.05,99.73,80.75,180.62,180.49,180.68h.14ZM184.65,0c101.98,0,184.65,82.67,184.65,184.65s-82.67,184.65-184.65,184.65S0,286.63,0,184.65C.31,82.8,82.8.31,184.65,0Z"/>
    </g>
    <path class="cls-20" d="m12.69,185.27C12.35,90.27,89.09,12.98,184.08,12.64c95-.34,172.29,76.4,172.63,171.39.34,95-76.4,172.29-171.39,172.63-.22,0-.44,0-.66,0-94.62-.31-171.34-76.77-171.96-171.4Zm53.64-118.94C.66,131.31.1,237.22,65.07,302.9c.23.23.46.46.69.69,31.68,31.28,74.37,48.89,118.89,49.05,92.42-.05,167.32-74.96,167.37-167.37-.14-44.54-17.75-87.25-49.05-118.94C238.92.96,134-.11,68.63,63.94c-.81.79-1.6,1.59-2.39,2.39h.09Z"/>
    <g class="cls-57">
      <path class="cls-46" d="m184.65,343.98c-88.2.21-159.87-71.11-160.09-159.31-.21-88.2,71.11-159.87,159.31-160.09s159.87,71.11,160.09,159.31c.1,42.49-16.73,83.26-46.77,113.31-29.75,30.01-70.28,46.86-112.54,46.78Zm0-4.73c85.11,0,154.12-68.99,154.13-154.1,0-85.12-68.99-154.12-154.1-154.13-40.85,0-80.02,16.21-108.92,45.07-29.32,28.45-45.79,67.62-45.6,108.47,0,85.43,69.25,154.68,154.68,154.68h-.19Z"/>
    </g>
    <path class="cls-20" d="m324.75,259.7l-114.11-90.62-25.99-148.34c-2.24.92-4.08,2.59-5.21,4.73l-18.47,144.27-114.82,88.21s-2.32,2.89-3.5,4.73c-.52,1.52-.71,3.13-.57,4.73l142.04-58.33,142.04,58.33c.85-2.65.32-5.55-1.42-7.72Z"/>
    <path class="cls-24" d="m185.84,189.29l-1.18,26.61,130.63,52.46c3.73,1.99,8.28,1.54,11.55-1.14l-139.39-78.5c-.51-.32-1.18-.17-1.5.34-.04.07-.08.15-.11.23Z"/>
    <g class="cls-59">
      <path class="cls-43" d="m185.84,189.29c4.61,8.02,10.02,15.56,16.15,22.49,8.4,8.77,17.95,16.36,28.41,22.54l84.89,34.04c3.73,1.99,8.28,1.54,11.55-1.14l-139.39-78.5c-.51-.32-1.18-.17-1.5.34-.04.07-.08.15-.11.23Z"/>
    </g>
    <path class="cls-25" d="m326.08,262.02c0-.57-.57-1.18-1.18-2.32l-118.89-87.17-16.15,10.23s1.14.57,1.7,0c2.82-.9,5.85-.9,8.66,0,2.89,1.14,125.85,79.64,125.85,79.64v-.38Z"/>
    <path class="cls-22" d="m322.01,256.81l-110.89-87.73-5.21,3.46,118.84,87.73c-.73-1.29-1.66-2.45-2.75-3.46Z"/>
    <path class="cls-24" d="m187.45,180.63l-.57.57s0,1.18,1.14.57c1.14-.62,17.33-9.23,23.11-12.69l-20.22-138.49c-.02-4.32-2.8-8.14-6.91-9.47l2.32,160.41,1.14-.9Z"/>
    <path class="cls-25" d="m177.98,30.59v7.48l-12.69,127.55c-.13,1.87.73,3.67,2.27,4.73l7.53,5.73,5.21-140.81.57-10.98c-1.72,1.66-2.76,3.91-2.89,6.3Z"/>
    <path class="cls-25" d="m170.83,178.31l-7.05-5.78-117.04,84.85s-3.46,2.32-4.07,4.73l4.07-2.32,123.1-77.32c2.13-1.28,2.7-2.41.99-4.17Z"/>
    <path class="cls-24" d="m182.95,189.29c0-.57-.62-1.18-1.18-.57l-139.67,79.26c3.37,2.41,7.77,2.84,11.55,1.14l130.44-52.51-1.14-27.32Z"/>
    <g class="cls-62">
      <path class="cls-54" d="m186.97,181.2l.57-.57-.57.57c0,.31.25.57.57.57h.57c.62-.57,17.33-9.23,23.11-12.69l-2.32-16.71-17.9-121.78c.15-1.89-.46-3.77-1.7-5.21,0,0,8.66,116.57,8.66,129.26-.03,9.95-3.98,19.49-10.98,26.56Z"/>
    </g>
    <g class="cls-63">
      <path class="cls-53" d="m182.95,189.29c0-.57-.62-1.18-1.18-.57l-139.67,79.26c3.37,2.41,7.77,2.84,11.55,1.14l130.44-52.51-1.14-27.32Z"/>
    </g>
    <g class="cls-12">
      <path class="cls-47" d="m53.64,268.36l130.44-52.46-1.14-25.43c-2.7,8.87-8.98,16.2-17.33,20.22-8.1,4.73-85.22,42.61-113.11,55.96-1.67.92-3.41,1.69-5.21,2.32,2.07.94,4.49.7,6.34-.62Z"/>
    </g>
    <g class="cls-7">
      <path class="cls-52" d="m187.45,180.63l-.57.57s0,1.18,1.14.57c1.14-.62,17.33-9.23,23.11-12.69l-20.22-138.49c-.02-4.32-2.8-8.14-6.91-9.47l2.32,160.41,1.14-.9Z"/>
    </g>
    <g class="cls-4">
      <path class="cls-48" d="m187.45,180.63l-.57.57s0,1.18,1.14.57c1.14-.62,17.33-9.23,23.11-12.69l-20.22-138.49c-.02-4.32-2.8-8.14-6.91-9.47l2.32,160.41,1.14-.9Z"/>
    </g>
    <g class="cls-11">
      <path class="cls-50" d="m29.4,256.24c-4.02-9.47-27.13-54.26-1.75-140.81h-9.8c-4.96,14.11-8.82,28.57-11.55,43.28,0,0-1.14,5.78-1.7,12.12-.43,4.6-.62,9.21-.57,13.83,0,34.66,8.66,54.83,8.66,54.83,8.89,28.59,25.23,54.3,47.35,74.48,21.08,17.14,46.06,28.83,72.73,34.04-4.07-.57-73.15-30.02-103.36-91.76Z"/>
    </g>
    <g class="cls-3">
      <path class="cls-49" d="m186.97,188.11h-5.21c.57,0,1.18,0,1.18.62l1.14,26.51h.57l1.18-26.51c0-.62.57-1.23,1.14-.62Z"/>
    </g>
    <path class="cls-51" d="m242.37,13.26c60.6,23.06,117.75,86.55,117.75,166.8.47,96.75-77.58,175.56-174.33,176.03-.38,0-.76,0-1.14,0v9.23c99.84-.01,180.76-80.96,180.75-180.8-.01-77.58-49.52-146.5-123.03-171.28Z"/>
    <g class="cls-8">
      <path class="cls-55" d="m339.34,116.47C298.95,23.53,207.76,18.37,202.55,17.76h-.57c69.84,12.74,114.3,58.33,129.87,106.2v.62c6.95,19.05,10.64,39.14,10.94,59.42.2,21.81-4.12,43.43-12.69,63.49-.57,2.89-1.14,6.34-1.7,6.34h9.47c27.46-51.84,15.29-104.21,1.47-137.35Z"/>
    </g>
    <path class="cls-21" d="m12.69,185.27C12.35,90.27,89.09,12.98,184.08,12.64c95-.34,172.29,76.4,172.63,171.39.34,95-76.4,172.29-171.39,172.63-.22,0-.44,0-.66,0-94.62-.31-171.34-76.77-171.96-171.4Zm53.64-118.94C.66,131.31.1,237.22,65.07,302.9c.23.23.46.46.69.69,31.68,31.28,74.37,48.89,118.89,49.05,92.42-.05,167.32-74.96,167.37-167.37-.14-44.54-17.75-87.25-49.05-118.94C238.92.96,134-.11,68.63,63.94c-.81.79-1.6,1.59-2.39,2.39h.09Z"/>
    <path class="cls-23" d="m45.41,258.51l117.89-84.8c5.73,3.17,11.72,5.86,17.9,8.05,1.14.62,1.14-.57,1.14-.57l-14.2-12.12c-1.58-1.03-2.47-2.85-2.32-4.73l13.83-139.11c-.57.57-.57,1.7-1.14,2.32-.46.89-.66,1.89-.57,2.89l-20.22,139.06-110.79,87.17c-.76.71-1.52,1.28-1.52,1.85Z"/>
  </g>
</svg>